<?xml version="1.0" standalone="no"?>
<!DOCTYPE svg PUBLIC "-//W3C//DTD SVG 20010904//EN"
 "http://www.w3.org/TR/2001/REC-SVG-20010904/DTD/svg10.dtd">
<svg version="1.0" xmlns="http://www.w3.org/2000/svg"
 width="1280.000000pt" height="1280.000000pt" viewBox="0 0 1280.000000 1280.000000"
 preserveAspectRatio="xMidYMid meet">

<g transform="translate(0.000000,1280.000000) scale(0.100000,-0.100000)"
fill="#181f40" stroke="none">
<path d="M6235 9729 c-141 -7 -220 -16 -435 -49 -103 -16 -381 -89 -478 -126
-37 -14 -104 -39 -148 -55 -103 -37 -378 -173 -475 -235 -41 -26 -96 -60 -123
-76 -134 -79 -534 -413 -581 -484 -21 -33 -18 -31 120 72 234 174 531 334 825
443 166 62 461 141 600 160 47 7 108 17 135 22 157 29 651 28 840 -1 202 -32
263 -43 405 -79 141 -35 197 -54 425 -138 112 -42 359 -168 499 -255 688 -428
1178 -1056 1440 -1849 28 -87 94 -374 110 -484 27 -186 35 -302 35 -510 0
-308 -23 -507 -95 -800 -104 -425 -304 -850 -559 -1189 -46 -61 -82 -112 -80
-115 6 -6 64 47 124 114 30 33 77 85 106 115 77 83 241 308 330 455 87 144
208 382 247 490 15 39 40 108 58 155 101 271 168 642 177 990 7 278 -7 454
-58 745 -39 218 -154 559 -268 796 -76 158 -203 373 -285 484 -29 39 -71 96
-94 127 -68 93 -259 297 -383 410 -235 214 -521 407 -815 549 -90 43 -168 79
-173 79 -4 0 -62 20 -127 46 -122 46 -418 127 -528 144 -33 5 -104 16 -157 24
-52 8 -160 18 -240 21 -79 3 -160 7 -179 9 -19 1 -107 -1 -195 -5z"/>
<path d="M2839 9213 c-627 -640 -1062 -1504 -1203 -2393 -87 -546 -86 -929 1
-1470 146 -913 577 -1759 1236 -2428 502 -510 1092 -882 1763 -1113 313 -108
600 -171 1004 -221 165 -20 767 -17 950 6 418 51 783 142 1165 291 134 51 452
204 560 267 241 142 416 261 600 409 137 110 390 341 405 370 6 10 -40 -22
-102 -71 -230 -184 -551 -388 -806 -513 -498 -245 -952 -377 -1537 -449 -151
-18 -790 -18 -940 0 -566 70 -1011 196 -1475 419 -1249 600 -2150 1722 -2464
3068 -42 183 -76 409 -107 725 -12 122 -7 510 10 680 26 277 84 594 152 830
168 582 444 1122 812 1585 44 55 84 106 90 113 27 35 -10 0 -114 -105z"/>
<path d="M4284 7952 c-132 -124 -289 -319 -399 -497 -79 -127 -183 -333 -213
-420 -11 -33 -30 -84 -41 -113 -34 -85 -89 -315 -112 -467 -31 -200 -31 -541
0 -740 68 -440 226 -824 485 -1175 405 -549 1036 -929 1701 -1025 66 -9 123
-19 127 -22 4 -2 115 -4 247 -4 195 0 264 3 373 21 465 73 864 240 1218 510
121 93 348 305 338 316 -4 3 -40 -19 -80 -49 -92 -68 -241 -159 -333 -205
-117 -57 -212 -100 -257 -116 -24 -8 -66 -23 -94 -34 -68 -27 -317 -89 -434
-107 -306 -49 -715 -34 -995 36 -44 11 -105 26 -135 34 -30 8 -109 34 -175 59
-555 206 -1032 602 -1337 1111 -65 109 -169 324 -202 420 -10 28 -21 59 -26
70 -16 40 -36 111 -80 285 -5 20 -19 96 -31 170 -29 184 -32 565 -5 745 17
110 74 365 95 425 112 313 230 546 375 739 48 64 65 92 54 91 -2 -1 -30 -26
-64 -58z"/>
<path d="M6270 7814 c-232 -20 -542 -139 -710 -273 -138 -110 -281 -253 -267
-267 3 -3 31 11 62 31 119 76 301 145 490 186 82 18 399 18 490 0 254 -49 455
-141 653 -299 271 -217 443 -511 513 -877 17 -91 17 -368 0 -460 -33 -173 -93
-341 -171 -477 -29 -49 -49 -92 -46 -95 3 -4 59 47 124 113 79 80 140 153 185
221 37 57 67 105 67 107 0 3 15 38 34 78 93 197 128 362 129 593 0 187 -11
263 -71 450 -90 285 -296 556 -553 727 -170 114 -328 180 -533 223 -69 15
-312 26 -396 19z"/>
<path d="M5705 6708 c-39 -22 -137 -109 -176 -156 -56 -66 -113 -174 -140
-262 -32 -107 -32 -302 0 -410 72 -239 261 -426 506 -501 105 -32 300 -30 406
4 139 46 219 95 319 198 73 75 127 158 94 145 -124 -50 -170 -58 -309 -58
-124 0 -149 3 -218 25 -405 135 -613 554 -473 955 26 74 25 79 -9 60z"/>
</g>
</svg>
